<svg xmlns="http://www.w3.org/2000/svg" version="1.1" xmlns:xlink="http://www.w3.org/1999/xlink" xmlns:svgjs="http://svgjs.dev/svgjs" width="100%" height="100%" viewBox="0 0 1000 600"><rect width="1000" height="600" x="0" y="0" fill="white"/><g><circle r="166.66666666666666" cx="374.28449503580725" cy="396.50671453945586" fill="#5d5dff" transform="matrix(0.6020677853459797,0,0,0.6020677853459797,0,61.276092751519656)"/><path d="M390.81934939128877 329.3460464083422L390.81934939128877 424.42925486730627Q390.81934939128877 443.22309364060123 383.2688060421933 454.8170973624363L383.2688060421933 454.8170973624363Q378.6270785734871 461.790003515426 375.40881419518416 464.4925203972061Q372.1905498168812 467.21566717884707 369.9418907320413 468.59787046952846L369.9418907320413 468.59787046952846Q365.073234364865 471.5066863499177 361.73119058739655 471.5066863499177L361.73119058739655 471.5066863499177Q352.6746645484542 471.5066863499177 346.795143088093 466.9268485807942L346.795143088093 466.9268485807942L351.3749808572164 452.65095787704007L356.0785980255054 452.65095787704007Q356.0785980255054 456.7769378492233 359.9157593996359 458.8811876350368L359.9157593996359 458.8811876350368Q361.52489158878734 459.6857537296126 364.02110947195825 459.6857537296126Q366.51732735512917 459.6857537296126 368.9103957389955 458.4892195376794Q371.3034641228618 457.29268534574624 373.1188953106224 454.8170973624363L373.1188953106224 454.8170973624363Q377.26550518266663 449.2263945001279 377.26550518266663 439.4478219660535L377.26550518266663 439.4478219660535L377.26550518266663 329.3460464083422L366.2285087570763 327.675024519608L366.2285087570763 321.5066844611939L401.7738262174354 321.5066844611939L401.7738262174354 327.675024519608L390.81934939128877 329.3460464083422Z " fill="white" transform="matrix(0.6020677853459797,0,0,0.6020677853459797,0,61.276092751519656)"/><path d="M665.2441769252064 339.2418061733804L665.2441769252064 427.7062958088749Q665.2441769252064 445.1919000739944 658.2192250470134 455.9788480399627L658.2192250470134 455.9788480399627Q653.900607089108 462.46637190561626 650.9063653049602 464.98076724999675Q647.9121235208124 467.514356451968 645.8199930434271 468.8003449105443L645.8199930434271 468.8003449105443Q641.2902426520241 471.50667883083173 638.1808377223321 471.50667883083173L638.1808377223321 471.50667883083173Q629.7547342400187 471.50667883083173 624.2844848266718 467.2456424456983L624.2844848266718 467.2456424456983L628.5455212118052 453.9634929929402L632.9217207424828 453.9634929929402Q632.9217207424828 457.80226451107836 636.4917782543512 459.7600379853288L636.4917782543512 459.7600379853288Q637.9888991464252 460.5085984313658 640.3113559148987 460.5085984313658Q642.6338126833723 460.5085984313658 644.8603001638926 459.3953546911057Q647.0867876444127 458.2821109508456 648.7758471123934 455.9788480399627L648.7758471123934 455.9788480399627Q652.6338124881224 450.77731263288547 652.6338124881224 441.67942413489794L652.6338124881224 441.67942413489794L652.6338124881224 339.2418061733804L642.3650986771027 337.68710370853444L642.3650986771027 331.9481402889178L675.4361153058633 331.9481402889178L675.4361153058633 337.68710370853444L665.2441769252064 339.2418061733804ZM687.7201841639054 400.91167061227037L687.7201841639054 400.91167061227037Q687.7201841639054 393.15735214563125 690.3881303690114 386.4778897040708Q693.0368827165269 379.79842726251036 697.6434085382925 375.13431986797247L697.6434085382925 375.13431986797247Q707.0867864729125 365.36464635431076 720.9063639382101 365.36464635431076L720.9063639382101 365.36464635431076Q736.9716227416183 365.36464635431076 746.0119296668339 374.86560586170276L746.0119296668339 374.86560586170276Q754.5915840098727 383.982688217281 754.5915840098727 398.68518313175025L754.5915840098727 398.68518313175025Q754.5915840098727 415.095931371791 744.8602982113924 425.34545132522L744.8602982113924 425.34545132522Q735.4169202767724 435.2686756996072 721.5205673811121 435.2686756996072L721.5205673811121 435.2686756996072Q705.6664410112014 435.2686756996072 696.4150016524884 425.4798083283548L696.4150016524884 425.4798083283548Q687.7201841639054 416.3051444000045 687.7201841639054 400.91167061227037ZM704.9946559955272 380.77731399963557Q702.2883220752399 384.25140222355066 700.9063643287101 388.91550961808855Q699.5244065821803 393.5604231550357 699.5244065821803 398.9922848532013Q699.5244065821803 404.42414655136685 700.7720073255753 409.5872942432627Q702.0196080689702 414.75044193515856 704.6491665588949 418.7427643140223L704.6491665588949 418.7427643140223Q710.4649054088742 427.38000022983323 721.3862103779774 427.38000022983323L721.3862103779774 427.38000022983323Q731.6357303314063 427.38000022983323 737.3171121782508 420.62376235791L737.3171121782508 420.62376235791Q742.9217185947326 414.0018814891216 742.9217185947326 402.735087083386L742.9217185947326 402.735087083386Q742.9217185947326 382.7734751890674 731.5013733282714 375.8828803140094L731.5013733282714 375.8828803140094Q727.2595308007288 373.3300972544475 721.46298580834 373.3300972544475Q715.6472469583607 373.3300972544475 711.6741184370876 375.3070645862887Q707.681796058224 377.30322577572053 704.9946559955272 380.77731399963557ZM772.8641364362105 424.94238031581546L772.8641364362105 333.6371997568986L764.0925435172647 331.9481402889178L764.0925435172647 326.4970847331616L783.881410693267 321.50668175958197L783.881410693267 374.13623927325654Q790.4840977044647 369.4721318787186 796.5877444183044 367.4183891165147Q802.6913911321443 365.36464635431076 808.2000282606724 365.36464635431076Q813.6894715316101 365.36464635431076 818.96778236905 367.898235556282Q824.2268993488993 370.41263090066246 827.8737322911308 374.86560586170276L827.8737322911308 374.86560586170276Q835.493693754635 384.1938206507786 835.493693754635 398.68518313175025L835.493693754635 398.68518313175025Q835.493693754635 413.73316748285197 826.5109684021917 424.0018812938716L826.5109684021917 424.0018812938716Q816.798876461302 435.2686756996072 800.1961896453544 435.2686756996072L800.1961896453544 435.2686756996072Q789.5435986825208 435.2686756996072 780.1578023206731 430.1439157228927L780.1578023206731 430.1439157228927Q775.9735413659024 427.9174282423725 772.8641364362105 424.94238031581546L772.8641364362105 424.94238031581546ZM803.3823700054091 374.13623927325654L803.3823700054091 374.13623927325654Q794.2652876498308 374.13623927325654 783.881410693267 381.08441572108666L783.881410693267 381.08441572108666L783.881410693267 419.6064879056034Q789.6779556856558 427.38000022983323 802.2883201227397 427.38000022983323L802.2883201227397 427.38000022983323Q812.01960592122 427.38000022983323 818.0848649198784 419.9519773422358L818.0848649198784 419.9519773422358Q823.7470529091321 413.0613824671778 823.7470529091321 402.735087083386L823.7470529091321 402.735087083386Q823.7470529091321 383.7139742110113 812.6146155065313 376.63144076004636L812.6146155065313 376.63144076004636Q808.7758439883931 374.13623927325654 803.3823700054091 374.13623927325654ZM955.7432115603139 433.7139732347612L915.7240184837232 348.81954111113515Q915.7240184837232 348.81954111113515 912.8833275603009 426.42030735029863L912.8833275603009 426.42030735029863L922.2691239221489 427.97500981514463L922.2691239221489 433.7139732347612L894.2652856973306 433.7139732347612L894.2652856973306 427.97500981514463L903.8430206350855 426.42030735029863L908.6990666055302 339.2418061733804L899.1981070981384 337.68710370853444L899.1981070981384 331.9481402889178L922.2691239221489 331.9481402889178L958.5071270533732 410.96925198979244L995.0138441908674 331.9481402889178L1016.1270875406275 331.9481402889178L1016.1270875406275 337.68710370853444L1006.0119245903335 339.2418061733804Q1007.0867806154121 361.2379669723122 1008.2959936436256 383.04218919533713Q1009.5244005294297 404.8272175607713 1010.5224811241459 426.42030735029863L1010.5224811241459 426.42030735029863L1020.9255519383001 427.97500981514463L1020.9255519383001 433.7139732347612L987.9313107399024 433.7139732347612L987.9313107399024 427.97500981514463L998.0464736901966 426.42030735029863L995.0138441908674 349.83681556344175L955.7432115603139 433.7139732347612ZM1094.3996387954653 423.86752429073675L1095.6280456812697 430.20149729566475Q1085.7624028796545 435.2686756996072 1081.3862033489768 435.2686756996072L1081.3862033489768 435.2686756996072Q1071.5397544049524 435.2686756996072 1071.5397544049524 426.90015379006593L1071.5397544049524 426.90015379006593L1071.5397544049524 424.80802331268063Q1070.580061525418 426.22836877439175 1066.3766067130564 428.91550883708845Q1062.1539580431045 431.6218427573759 1059.7931135594495 432.6966987824546L1059.7931135594495 432.6966987824546Q1054.1885071429679 435.2686756996072 1051.2902346467731 435.2686756996072Q1048.3919621505788 435.2686756996072 1046.4917702491007 435.0383494085189Q1044.610772205213 434.78882925983993 1042.5762233005998 434.1170442441657Q1040.5608682535772 433.4452592284916 1038.6030947793265 432.236046200278Q1036.6453213050763 431.0076393144738 1035.09061884023 429.04986584022333L1035.09061884023 429.04986584022333Q1031.6549183314964 424.73124788231786 1031.6549183314964 417.78307143448774L1031.6549183314964 417.78307143448774Q1031.6549183314964 408.20533649673297 1038.4687377761916 404.42414655136685L1038.4687377761916 404.42414655136685Q1042.7873557340972 401.928945064577 1047.6050139893605 401.3147416216749Q1052.441866102215 400.7197320363635 1056.414994623488 400.374242599731L1056.414994623488 400.374242599731Q1063.9773745142202 399.70245758405684 1071.5397544049524 399.568100580922L1071.5397544049524 399.568100580922L1071.5397544049524 385.40303367899213Q1071.5397544049524 379.52971325624065 1070.0426335128782 377.5719397819902L1070.0426335128782 377.5719397819902Q1067.5474320260887 374.13623927325654 1062.2883150462394 374.13623927325654L1062.2883150462394 374.13623927325654Q1050.5416742007365 374.13623927325654 1039.2172982222287 381.75620073676083L1039.2172982222287 381.75620073676083L1035.3017512737279 375.8828803140094Q1051.0791022132757 365.36464635431076 1063.5743035048154 365.36464635431076L1063.5743035048154 365.36464635431076Q1074.4380269011467 365.36464635431076 1078.948583434959 371.372323780197L1078.948583434959 371.372323780197Q1082.4610593740554 376.01723731714424 1082.4610593740554 384.5968916601831L1082.4610593740554 384.5968916601831L1082.4610593740554 420.08633434537063Q1082.4610593740554 425.0767373189503 1084.361251275534 425.7485223346245L1084.361251275534 425.7485223346245Q1085.0330362912082 425.9596547681221 1086.1078923162868 425.9596547681221L1086.1078923162868 425.9596547681221Q1088.814226236574 425.9596547681221 1094.3996387954653 423.86752429073675L1094.3996387954653 423.86752429073675ZM1071.5397544049524 418.58921345329674L1071.5397544049524 405.23028857017584Q1052.3650906718522 405.9788490162128 1046.971616688868 409.08825394590474L1046.971616688868 409.08825394590474Q1042.8449373068693 411.44909842955974 1042.8449373068693 416.70821540940904L1042.8449373068693 416.70821540940904Q1042.8449373068693 424.32817687291333 1048.7182577296207 426.09401177125693L1048.7182577296207 426.09401177125693Q1050.3497356248295 426.5546643534335 1052.6721923933032 426.5546643534335Q1054.9946491617766 426.5546643534335 1058.1040540914687 425.61416533148963Q1061.2134590211608 424.6736663095458 1063.8430175110852 423.33009627819746L1063.8430175110852 423.33009627819746Q1068.833420484665 420.8924763641797 1071.5397544049524 418.58921345329674L1071.5397544049524 418.58921345329674ZM1141.3670083198858 374.13623927325654L1141.3670083198858 374.13623927325654Q1131.0407129360942 374.13623927325654 1120.6568359795306 381.27635429699353L1120.6568359795306 381.27635429699353L1120.6568359795306 426.5546643534335L1129.2172964649785 428.10936681827945L1129.2172964649785 433.7139732347612L1100.887162661119 433.7139732347612L1100.887162661119 428.10936681827945L1109.6587555800647 426.5546643534335L1109.6587555800647 377.43758277885536L1100.887162661119 375.8828803140094L1100.887162661119 370.27827389752764L1119.505204524089 365.36464635431076L1119.505204524089 374.13623927325654Q1133.1328434134793 365.36464635431076 1144.8219026862103 365.36464635431076L1144.8219026862103 365.36464635431076Q1158.8526125850053 365.36464635431076 1163.094455112548 377.03451176945083L1163.094455112548 377.03451176945083Q1164.5148005742594 380.9500587179518 1164.5148005742594 386.20917569780113L1164.5148005742594 386.20917569780113L1164.5148005742594 426.5546643534335L1173.0944549172982 428.10936681827945L1173.0944549172982 433.7139732347612L1144.8219026862103 433.7139732347612L1144.8219026862103 428.10936681827945L1153.5167201747931 426.5546643534335L1153.5167201747931 387.4951641563774Q1153.5167201747931 374.13623927325654 1141.3670083198858 374.13623927325654ZM1244.284472721171 423.86752429073675L1245.4936857493844 430.20149729566475Q1235.64723680536 435.2686756996072 1231.2518434170915 435.2686756996072L1231.2518434170915 435.2686756996072Q1221.4053944730672 435.2686756996072 1221.4053944730672 426.90015379006593L1221.4053944730672 426.90015379006593L1221.4053944730672 424.80802331268063Q1220.464895451123 426.22836877439175 1216.2422467811712 428.91550883708845Q1212.0195981112192 431.6218427573759 1209.6587536275642 432.6966987824546L1209.6587536275642 432.6966987824546Q1204.0541472110826 435.2686756996072 1201.1558747148883 435.2686756996072Q1198.257602218694 435.2686756996072 1196.3766041748063 435.0383494085189Q1194.4764122733277 434.78882925983993 1192.461057226305 434.1170442441657Q1190.426508321692 433.4452592284916 1188.4687348474417 432.236046200278Q1186.510961373191 431.0076393144738 1184.9562589083453 429.04986584022333L1184.9562589083453 429.04986584022333Q1181.5205583996112 424.73124788231786 1181.5205583996112 417.78307143448774L1181.5205583996112 417.78307143448774Q1181.5205583996112 408.20533649673297 1188.3343778443068 404.42414655136685L1188.3343778443068 404.42414655136685Q1192.652995802212 401.928945064577 1197.489847915066 401.3147416216749Q1202.3075061703298 400.7197320363635 1206.2806346916027 400.374242599731L1206.2806346916027 400.374242599731Q1213.843014582335 399.70245758405684 1221.4053944730672 399.568100580922L1221.4053944730672 399.568100580922L1221.4053944730672 385.40303367899213Q1221.4053944730672 379.52971325624065 1219.9082735809934 377.5719397819902L1219.9082735809934 377.5719397819902Q1217.4130720942035 374.13623927325654 1212.1539551143542 374.13623927325654L1212.1539551143542 374.13623927325654Q1200.4073142688512 374.13623927325654 1189.0829382903435 381.75620073676083L1189.0829382903435 381.75620073676083L1185.1673913418426 375.8828803140094Q1200.9639361389814 365.36464635431076 1213.4399435729306 365.36464635431076L1213.4399435729306 365.36464635431076Q1224.3036669692615 365.36464635431076 1228.8334173606645 371.372323780197L1228.8334173606645 371.372323780197Q1232.3266994421706 376.01723731714424 1232.3266994421706 384.5968916601831L1232.3266994421706 384.5968916601831L1232.3266994421706 420.08633434537063Q1232.3266994421706 425.0767373189503 1234.2268913436487 425.7485223346245L1234.2268913436487 425.7485223346245Q1234.898676359323 425.9596547681221 1235.9735323844016 425.9596547681221L1235.9735323844016 425.9596547681221Q1238.6798663046893 425.9596547681221 1244.284472721171 423.86752429073675L1244.284472721171 423.86752429073675ZM1221.4053944730672 418.58921345329674L1221.4053944730672 405.23028857017584Q1202.230730739967 405.9788490162128 1196.8372567569827 409.08825394590474L1196.8372567569827 409.08825394590474Q1192.7297712325749 411.44909842955974 1192.7297712325749 416.70821540940904L1192.7297712325749 416.70821540940904Q1192.7297712325749 424.32817687291333 1198.6030916553264 426.09401177125693L1198.6030916553264 426.09401177125693Q1200.2153756929442 426.5546643534335 1202.537832461418 426.5546643534335Q1204.8602892298914 426.5546643534335 1207.9696941595835 425.61416533148963Q1211.0790990892756 424.6736663095458 1213.7086575792 423.33009627819746L1213.7086575792 423.33009627819746Q1218.6990605527799 420.8924763641797 1221.4053944730672 418.58921345329674L1221.4053944730672 418.58921345329674ZM1317.1443561354336 376.82337933595323L1308.3727632164878 376.82337933595323Q1311.5589435765428 381.9673331702584 1311.5589435765428 389.5872946337627L1311.5589435765428 389.5872946337627Q1311.5589435765428 400.31666102695897 1300.752801752984 408.60840750613744L1300.752801752984 408.60840750613744Q1296.0311127856735 412.25524044836874 1289.6971397807456 414.6928603623865L1289.6971397807456 414.6928603623865L1279.370844396954 418.58921345329674Q1271.9428215093567 421.37232280394693 1270.9639347722314 422.40879111384425Q1269.985048035106 423.4644532813322 1269.985048035106 424.09785058182507Q1269.985048035106 424.73124788231786 1270.6568330507803 425.34545132522Q1271.3286180664545 425.9596547681221 1272.8833205313003 426.4970827806614L1272.8833205313003 426.4970827806614Q1276.6069289038946 427.7830712392377 1283.2863913454548 427.7830712392377Q1289.9658537870155 427.7830712392377 1295.762398779404 428.49324397009326Q1301.5589437717927 429.18422284335816 1306.0119187328328 431.14199631760863L1306.0119187328328 431.14199631760863Q1315.7432045313135 435.5373897058769 1315.7432045313135 446.1323990959383L1315.7432045313135 446.1323990959383Q1315.7432045313135 453.29170797726596 1310.1385981148314 459.41454854869636L1310.1385981148314 459.41454854869636Q1302.3842796481922 467.85984588860043 1288.1424373158998 470.7005368120227L1288.1424373158998 470.7005368120227Q1283.8814009307662 471.50667883083173 1278.7566409540518 471.50667883083173Q1273.6318809773375 471.50667883083173 1268.2959885671253 470.43182280575303Q1262.960096156913 469.3377729230836 1258.9869676356402 467.0537038697914L1258.9869676356402 467.0537038697914Q1250.5608641533267 462.25523947211866 1250.5608641533267 452.6775045343639L1250.5608641533267 452.6775045343639Q1250.5608641533267 445.24948164676647 1256.837255585483 441.2763531254935L1256.837255585483 441.2763531254935L1261.2134551161603 438.6467946355688Q1263.036871587276 437.6871017560342 1265.3017467829773 437.22644917385765Q1267.566621978679 436.7466027340904 1269.850691031971 436.151593148779L1269.850691031971 436.151593148779Q1262.5570251475087 434.7312476870678 1259.793109654449 430.33585429879963L1259.793109654449 430.33585429879963Q1258.8526106325053 428.78115183395363 1258.8526106325053 427.07289850838214Q1258.8526106325053 425.34545132522 1259.5243956481795 424.13623829700646Q1260.1961806638537 422.9078314112022 1261.9620155621974 421.6986183829887Q1263.7086566029502 420.48940535477516 1266.8180615326419 419.011478320292L1266.8180615326419 419.011478320292L1274.841094005551 415.2302883749258Q1268.507121000623 414.0018814891216 1262.960096156913 409.3569679521744L1262.960096156913 409.3569679521744Q1255.3401346934088 402.9462195168836 1255.3401346934088 391.27635410174355L1255.3401346934088 391.27635410174355Q1255.3401346934088 380.06714126878 1265.1865836374332 372.3128228021409L1265.1865836374332 372.3128228021409Q1273.9005949836069 365.36464635431076 1284.3612473705334 365.36464635431076Q1294.82189975746 365.36464635431076 1302.4418612209643 370.27827389752764L1302.4418612209643 370.27827389752764Q1307.2979071914092 366.9193488191567 1318.5071200243729 365.4990033574456L1318.5071200243729 365.4990033574456L1320.3305364954886 367.5911338348309L1317.1443561354336 376.82337933595323ZM1262.768157581006 448.8003453010443Q1262.3650865716018 450.6429556297506 1262.3650865716018 453.4836465531729Q1262.3650865716018 456.3243374765952 1264.4572170489869 458.7235696754315Q1266.5493475263725 461.10360801667724 1269.793109459199 462.3895964752535L1269.793109459199 462.3895964752535Q1275.0522264390484 464.4817269526388 1281.6933011654278 464.4817269526388Q1288.3343758918068 464.4817269526388 1291.8468518309028 463.4068709275601Q1295.3593277699997 462.33201490248143 1297.9888862599241 460.2974659978682L1297.9888862599241 460.2974659978682Q1303.9197882554477 455.8444910368279 1303.9197882554477 448.6851821555002L1303.9197882554477 448.6851821555002Q1303.9197882554477 439.72165066064747 1291.232648388001 438.57001920520605L1291.232648388001 438.57001920520605Q1287.5282338729976 438.2437236261643 1283.4783299213618 438.2437236261643L1283.4783299213618 438.2437236261643Q1271.8852399365846 438.2437236261643 1265.0522266342987 445.0575430708596L1265.0522266342987 445.0575430708596Q1263.171228590411 446.9385411147473 1262.768157581006 448.8003453010443ZM1267.892917557721 381.3531297273563L1267.892917557721 381.3531297273563Q1266.4725720960096 384.6544732329551 1266.4725720960096 389.4145499154465Q1266.4725720960096 394.1746265979379 1267.892917557721 397.6871025370343Q1269.3132630194318 401.1803846185401 1271.7316890758589 403.6180045325578L1271.7316890758589 403.6180045325578Q1276.6645104766667 408.5508259333654 1284.418828943306 408.5508259333654L1284.418828943306 408.5508259333654Q1294.5531857511905 408.5508259333654 1298.8718037090957 400.04794702068926L1298.8718037090957 400.04794702068926Q1300.484087746714 396.8617666606346 1300.484087746714 392.17846540850604Q1300.484087746714 387.4951641563774 1299.0637422850027 383.8483312141461Q1297.6433968232918 380.2014982719149 1295.2249707668648 377.64871521235295L1295.2249707668648 377.64871521235295Q1290.1577923629225 372.3128228021409 1282.5378308994177 372.3128228021409L1282.5378308994177 372.3128228021409Q1271.7316890758589 372.3128228021409 1267.892917557721 381.3531297273563ZM1386.1078864587862 418.26291787425504L1386.1078864587862 418.26291787425504L1389.965851834515 422.63911740493256Q1379.236485441319 432.2936277730501 1369.1789040637968 434.7312476870678L1369.1789040637968 434.7312476870678Q1366.9524165832768 435.2686756996072 1364.8027045331196 435.2686756996072L1364.8027045331196 435.2686756996072Q1349.9466587579245 435.2686756996072 1340.6376378264395 425.88287933775933L1340.6376378264395 425.88287933775933Q1331.3861984677264 416.70821540940904 1331.3861984677264 401.928945064577L1331.3861984677264 401.928945064577Q1331.3861984677264 387.2264501501077 1340.1002098139002 376.7657977631812L1340.1002098139002 376.7657977631812Q1349.677944751655 365.36464635431076 1364.9946431090261 365.36464635431076L1364.9946431090261 365.36464635431076Q1375.5896524990876 365.36464635431076 1382.8833183835504 372.98460781781506L1382.8833183835504 372.98460781781506Q1390.6376368501897 380.9500587179518 1390.6376368501897 393.6947801581706L1390.6376368501897 393.6947801581706L1387.4706503477255 396.53547108159285L1343.4783287498617 399.70245758405684Q1343.6126857529966 411.9865264420991 1351.424585792408 419.3377738993337L1351.424585792408 419.3377738993337Q1358.4495376706009 425.8252977649872 1367.758558602086 425.8252977649872Q1377.067579533571 425.8252977649872 1386.1078864587862 418.26291787425504ZM1343.9389813320386 393.36848457912885L1343.9389813320386 393.36848457912885L1378.6222819984168 390.1823042190742Q1378.1616294162404 378.9922852437013 1369.985046082606 374.8080242889307L1369.985046082606 374.8080242889307Q1367.0867735864117 373.3300972544475 1362.576217052599 373.3300972544475Q1358.046466661196 373.3300972544475 1354.4956030069184 375.55658473496766Q1350.963933210231 377.7830722154878 1348.660670299348 380.9500587179518L1348.660670299348 380.9500587179518Q1344.2844707686709 386.9577361438381 1343.9389813320386 393.36848457912885ZM1407.240323666137 426.5546643534335L1407.240323666137 377.43758277885536L1398.6030877503263 375.8828803140094L1398.6030877503263 370.27827389752764L1418.16162863524 365.36464635431076L1418.16162863524 382.56234275556983Q1433.6894594261094 365.36464635431076 1441.520553323111 365.36464635431076L1441.520553323111 365.36464635431076Q1447.9313017584018 365.36464635431076 1453.324775741386 370.48940633102524L1453.324775741386 370.48940633102524L1449.8122998022895 381.4107113001284L1446.6453132998254 381.4107113001284Q1446.6453132998254 378.10936779452953 1441.578134895883 376.4970837569115L1441.578134895883 376.4970837569115Q1440.1577894341722 376.094012747507 1438.7566378300517 376.094012747507L1438.7566378300517 376.094012747507Q1431.5973289487238 376.094012747507 1418.16162863524 390.45101822534383L1418.16162863524 390.45101822534383L1418.16162863524 426.5546643534335L1431.5205535183609 428.10936681827945L1431.5205535183609 433.7139732347612L1398.6030877503263 433.7139732347612L1398.6030877503263 428.10936681827945L1407.240323666137 426.5546643534335Z " fill="#5d5dff" transform="matrix(0.6020677853459797,0,0,0.6020677853459797,0,61.276092751519656)"/></g></svg>